<svg xmlns="http://www.w3.org/2000/svg" width="49.697mm" height="53.333mm" viewBox="0 0 49.697 53.333">
<rect width="49.697" height="53.333" fill="none"/>
<g shape-rendering="crispEdges">
<rect x="4.8485" y="4.8485" width="1.2121" height="1.2121" fill="#111111"/>
<rect x="6.0606" y="4.8485" width="1.2121" height="1.2121" fill="#111111"/>
<rect x="7.2727" y="4.8485" width="1.2121" height="1.2121" fill="#111111"/>
<rect x="8.4848" y="4.8485" width="1.2121" height="1.2121" fill="#111111"/>
<rect x="9.6970" y="4.8485" width="1.2121" height="1.2121" fill="#111111"/>
<rect x="10.9091" y="4.8485" width="1.2121" height="1.2121" fill="#111111"/>
<rect x="12.1212" y="4.8485" width="1.2121" height="1.2121" fill="#111111"/>
<rect x="15.7576" y="4.8485" width="1.2121" height="1.2121" fill="#111111"/>
<rect x="18.1818" y="4.8485" width="1.2121" height="1.2121" fill="#111111"/>
<rect x="19.3939" y="4.8485" width="1.2121" height="1.2121" fill="#111111"/>
<rect x="20.6061" y="4.8485" width="1.2121" height="1.2121" fill="#111111"/>
<rect x="25.4545" y="4.8485" width="1.2121" height="1.2121" fill="#111111"/>
<rect x="26.6667" y="4.8485" width="1.2121" height="1.2121" fill="#111111"/>
<rect x="27.8788" y="4.8485" width="1.2121" height="1.2121" fill="#111111"/>
<rect x="29.0909" y="4.8485" width="1.2121" height="1.2121" fill="#111111"/>
<rect x="30.3030" y="4.8485" width="1.2121" height="1.2121" fill="#111111"/>
<rect x="31.5152" y="4.8485" width="1.2121" height="1.2121" fill="#111111"/>
<rect x="33.9394" y="4.8485" width="1.2121" height="1.2121" fill="#111111"/>
<rect x="36.3636" y="4.8485" width="1.2121" height="1.2121" fill="#111111"/>
<rect x="37.5758" y="4.8485" width="1.2121" height="1.2121" fill="#111111"/>
<rect x="38.7879" y="4.8485" width="1.2121" height="1.2121" fill="#111111"/>
<rect x="40.0000" y="4.8485" width="1.2121" height="1.2121" fill="#111111"/>
<rect x="41.2121" y="4.8485" width="1.2121" height="1.2121" fill="#111111"/>
<rect x="42.4242" y="4.8485" width="1.2121" height="1.2121" fill="#111111"/>
<rect x="43.6364" y="4.8485" width="1.2121" height="1.2121" fill="#111111"/>
<rect x="4.8485" y="6.0606" width="1.2121" height="1.2121" fill="#111111"/>
<rect x="12.1212" y="6.0606" width="1.2121" height="1.2121" fill="#111111"/>
<rect x="16.9697" y="6.0606" width="1.2121" height="1.2121" fill="#111111"/>
<rect x="18.1818" y="6.0606" width="1.2121" height="1.2121" fill="#111111"/>
<rect x="21.8182" y="6.0606" width="1.2121" height="1.2121" fill="#111111"/>
<rect x="23.0303" y="6.0606" width="1.2121" height="1.2121" fill="#111111"/>
<rect x="26.6667" y="6.0606" width="1.2121" height="1.2121" fill="#111111"/>
<rect x="27.8788" y="6.0606" width="1.2121" height="1.2121" fill="#111111"/>
<rect x="29.0909" y="6.0606" width="1.2121" height="1.2121" fill="#111111"/>
<rect x="30.3030" y="6.0606" width="1.2121" height="1.2121" fill="#111111"/>
<rect x="31.5152" y="6.0606" width="1.2121" height="1.2121" fill="#111111"/>
<rect x="33.9394" y="6.0606" width="1.2121" height="1.2121" fill="#111111"/>
<rect x="36.3636" y="6.0606" width="1.2121" height="1.2121" fill="#111111"/>
<rect x="43.6364" y="6.0606" width="1.2121" height="1.2121" fill="#111111"/>
<rect x="4.8485" y="7.2727" width="1.2121" height="1.2121" fill="#111111"/>
<rect x="7.2727" y="7.2727" width="1.2121" height="1.2121" fill="#111111"/>
<rect x="8.4848" y="7.2727" width="1.2121" height="1.2121" fill="#111111"/>
<rect x="9.6970" y="7.2727" width="1.2121" height="1.2121" fill="#111111"/>
<rect x="12.1212" y="7.2727" width="1.2121" height="1.2121" fill="#111111"/>
<rect x="14.5455" y="7.2727" width="1.2121" height="1.2121" fill="#111111"/>
<rect x="15.7576" y="7.2727" width="1.2121" height="1.2121" fill="#111111"/>
<rect x="16.9697" y="7.2727" width="1.2121" height="1.2121" fill="#111111"/>
<rect x="19.3939" y="7.2727" width="1.2121" height="1.2121" fill="#111111"/>
<rect x="20.6061" y="7.2727" width="1.2121" height="1.2121" fill="#111111"/>
<rect x="23.0303" y="7.2727" width="1.2121" height="1.2121" fill="#111111"/>
<rect x="24.2424" y="7.2727" width="1.2121" height="1.2121" fill="#111111"/>
<rect x="26.6667" y="7.2727" width="1.2121" height="1.2121" fill="#111111"/>
<rect x="27.8788" y="7.2727" width="1.2121" height="1.2121" fill="#111111"/>
<rect x="29.0909" y="7.2727" width="1.2121" height="1.2121" fill="#111111"/>
<rect x="30.3030" y="7.2727" width="1.2121" height="1.2121" fill="#111111"/>
<rect x="32.7273" y="7.2727" width="1.2121" height="1.2121" fill="#111111"/>
<rect x="33.9394" y="7.2727" width="1.2121" height="1.2121" fill="#111111"/>
<rect x="36.3636" y="7.2727" width="1.2121" height="1.2121" fill="#111111"/>
<rect x="38.7879" y="7.2727" width="1.2121" height="1.2121" fill="#111111"/>
<rect x="40.0000" y="7.2727" width="1.2121" height="1.2121" fill="#111111"/>
<rect x="41.2121" y="7.2727" width="1.2121" height="1.2121" fill="#111111"/>
<rect x="43.6364" y="7.2727" width="1.2121" height="1.2121" fill="#111111"/>
<rect x="4.8485" y="8.4848" width="1.2121" height="1.2121" fill="#111111"/>
<rect x="7.2727" y="8.4848" width="1.2121" height="1.2121" fill="#111111"/>
<rect x="8.4848" y="8.4848" width="1.2121" height="1.2121" fill="#111111"/>
<rect x="9.6970" y="8.4848" width="1.2121" height="1.2121" fill="#111111"/>
<rect x="12.1212" y="8.4848" width="1.2121" height="1.2121" fill="#111111"/>
<rect x="14.5455" y="8.4848" width="1.2121" height="1.2121" fill="#111111"/>
<rect x="16.9697" y="8.4848" width="1.2121" height="1.2121" fill="#111111"/>
<rect x="19.3939" y="8.4848" width="1.2121" height="1.2121" fill="#111111"/>
<rect x="23.0303" y="8.4848" width="1.2121" height="1.2121" fill="#111111"/>
<rect x="25.4545" y="8.4848" width="1.2121" height="1.2121" fill="#111111"/>
<rect x="27.8788" y="8.4848" width="1.2121" height="1.2121" fill="#111111"/>
<rect x="29.0909" y="8.4848" width="1.2121" height="1.2121" fill="#111111"/>
<rect x="30.3030" y="8.4848" width="1.2121" height="1.2121" fill="#111111"/>
<rect x="31.5152" y="8.4848" width="1.2121" height="1.2121" fill="#111111"/>
<rect x="32.7273" y="8.4848" width="1.2121" height="1.2121" fill="#111111"/>
<rect x="33.9394" y="8.4848" width="1.2121" height="1.2121" fill="#111111"/>
<rect x="36.3636" y="8.4848" width="1.2121" height="1.2121" fill="#111111"/>
<rect x="38.7879" y="8.4848" width="1.2121" height="1.2121" fill="#111111"/>
<rect x="40.0000" y="8.4848" width="1.2121" height="1.2121" fill="#111111"/>
<rect x="41.2121" y="8.4848" width="1.2121" height="1.2121" fill="#111111"/>
<rect x="43.6364" y="8.4848" width="1.2121" height="1.2121" fill="#111111"/>
<rect x="4.8485" y="9.6970" width="1.2121" height="1.2121" fill="#111111"/>
<rect x="7.2727" y="9.6970" width="1.2121" height="1.2121" fill="#111111"/>
<rect x="8.4848" y="9.6970" width="1.2121" height="1.2121" fill="#111111"/>
<rect x="9.6970" y="9.6970" width="1.2121" height="1.2121" fill="#111111"/>
<rect x="12.1212" y="9.6970" width="1.2121" height="1.2121" fill="#111111"/>
<rect x="15.7576" y="9.6970" width="1.2121" height="1.2121" fill="#111111"/>
<rect x="16.9697" y="9.6970" width="1.2121" height="1.2121" fill="#111111"/>
<rect x="19.3939" y="9.6970" width="1.2121" height="1.2121" fill="#111111"/>
<rect x="20.6061" y="9.6970" width="1.2121" height="1.2121" fill="#111111"/>
<rect x="23.0303" y="9.6970" width="1.2121" height="1.2121" fill="#111111"/>
<rect x="25.4545" y="9.6970" width="1.2121" height="1.2121" fill="#111111"/>
<rect x="26.6667" y="9.6970" width="1.2121" height="1.2121" fill="#111111"/>
<rect x="27.8788" y="9.6970" width="1.2121" height="1.2121" fill="#111111"/>
<rect x="32.7273" y="9.6970" width="1.2121" height="1.2121" fill="#111111"/>
<rect x="36.3636" y="9.6970" width="1.2121" height="1.2121" fill="#111111"/>
<rect x="38.7879" y="9.6970" width="1.2121" height="1.2121" fill="#111111"/>
<rect x="40.0000" y="9.6970" width="1.2121" height="1.2121" fill="#111111"/>
<rect x="41.2121" y="9.6970" width="1.2121" height="1.2121" fill="#111111"/>
<rect x="43.6364" y="9.6970" width="1.2121" height="1.2121" fill="#111111"/>
<rect x="4.8485" y="10.9091" width="1.2121" height="1.2121" fill="#111111"/>
<rect x="12.1212" y="10.9091" width="1.2121" height="1.2121" fill="#111111"/>
<rect x="15.7576" y="10.9091" width="1.2121" height="1.2121" fill="#111111"/>
<rect x="16.9697" y="10.9091" width="1.2121" height="1.2121" fill="#111111"/>
<rect x="18.1818" y="10.9091" width="1.2121" height="1.2121" fill="#111111"/>
<rect x="21.8182" y="10.9091" width="1.2121" height="1.2121" fill="#111111"/>
<rect x="25.4545" y="10.9091" width="1.2121" height="1.2121" fill="#111111"/>
<rect x="29.0909" y="10.9091" width="1.2121" height="1.2121" fill="#111111"/>
<rect x="31.5152" y="10.9091" width="1.2121" height="1.2121" fill="#111111"/>
<rect x="32.7273" y="10.9091" width="1.2121" height="1.2121" fill="#111111"/>
<rect x="33.9394" y="10.9091" width="1.2121" height="1.2121" fill="#111111"/>
<rect x="36.3636" y="10.9091" width="1.2121" height="1.2121" fill="#111111"/>
<rect x="43.6364" y="10.9091" width="1.2121" height="1.2121" fill="#111111"/>
<rect x="4.8485" y="12.1212" width="1.2121" height="1.2121" fill="#111111"/>
<rect x="6.0606" y="12.1212" width="1.2121" height="1.2121" fill="#111111"/>
<rect x="7.2727" y="12.1212" width="1.2121" height="1.2121" fill="#111111"/>
<rect x="8.4848" y="12.1212" width="1.2121" height="1.2121" fill="#111111"/>
<rect x="9.6970" y="12.1212" width="1.2121" height="1.2121" fill="#111111"/>
<rect x="10.9091" y="12.1212" width="1.2121" height="1.2121" fill="#111111"/>
<rect x="12.1212" y="12.1212" width="1.2121" height="1.2121" fill="#111111"/>
<rect x="14.5455" y="12.1212" width="1.2121" height="1.2121" fill="#111111"/>
<rect x="16.9697" y="12.1212" width="1.2121" height="1.2121" fill="#111111"/>
<rect x="19.3939" y="12.1212" width="1.2121" height="1.2121" fill="#111111"/>
<rect x="21.8182" y="12.1212" width="1.2121" height="1.2121" fill="#111111"/>
<rect x="24.2424" y="12.1212" width="1.2121" height="1.2121" fill="#111111"/>
<rect x="26.6667" y="12.1212" width="1.2121" height="1.2121" fill="#111111"/>
<rect x="29.0909" y="12.1212" width="1.2121" height="1.2121" fill="#111111"/>
<rect x="31.5152" y="12.1212" width="1.2121" height="1.2121" fill="#111111"/>
<rect x="33.9394" y="12.1212" width="1.2121" height="1.2121" fill="#111111"/>
<rect x="36.3636" y="12.1212" width="1.2121" height="1.2121" fill="#111111"/>
<rect x="37.5758" y="12.1212" width="1.2121" height="1.2121" fill="#111111"/>
<rect x="38.7879" y="12.1212" width="1.2121" height="1.2121" fill="#111111"/>
<rect x="40.0000" y="12.1212" width="1.2121" height="1.2121" fill="#111111"/>
<rect x="41.2121" y="12.1212" width="1.2121" height="1.2121" fill="#111111"/>
<rect x="42.4242" y="12.1212" width="1.2121" height="1.2121" fill="#111111"/>
<rect x="43.6364" y="12.1212" width="1.2121" height="1.2121" fill="#111111"/>
<rect x="15.7576" y="13.3333" width="1.2121" height="1.2121" fill="#111111"/>
<rect x="16.9697" y="13.3333" width="1.2121" height="1.2121" fill="#111111"/>
<rect x="18.1818" y="13.3333" width="1.2121" height="1.2121" fill="#111111"/>
<rect x="19.3939" y="13.3333" width="1.2121" height="1.2121" fill="#111111"/>
<rect x="21.8182" y="13.3333" width="1.2121" height="1.2121" fill="#111111"/>
<rect x="25.4545" y="13.3333" width="1.2121" height="1.2121" fill="#111111"/>
<rect x="26.6667" y="13.3333" width="1.2121" height="1.2121" fill="#111111"/>
<rect x="27.8788" y="13.3333" width="1.2121" height="1.2121" fill="#111111"/>
<rect x="29.0909" y="13.3333" width="1.2121" height="1.2121" fill="#111111"/>
<rect x="33.9394" y="13.3333" width="1.2121" height="1.2121" fill="#111111"/>
<rect x="8.4848" y="14.5455" width="1.2121" height="1.2121" fill="#111111"/>
<rect x="9.6970" y="14.5455" width="1.2121" height="1.2121" fill="#111111"/>
<rect x="12.1212" y="14.5455" width="1.2121" height="1.2121" fill="#111111"/>
<rect x="13.3333" y="14.5455" width="1.2121" height="1.2121" fill="#111111"/>
<rect x="18.1818" y="14.5455" width="1.2121" height="1.2121" fill="#111111"/>
<rect x="19.3939" y="14.5455" width="1.2121" height="1.2121" fill="#111111"/>
<rect x="20.6061" y="14.5455" width="1.2121" height="1.2121" fill="#111111"/>
<rect x="24.2424" y="14.5455" width="1.2121" height="1.2121" fill="#111111"/>
<rect x="25.4545" y="14.5455" width="1.2121" height="1.2121" fill="#111111"/>
<rect x="29.0909" y="14.5455" width="1.2121" height="1.2121" fill="#111111"/>
<rect x="30.3030" y="14.5455" width="1.2121" height="1.2121" fill="#111111"/>
<rect x="32.7273" y="14.5455" width="1.2121" height="1.2121" fill="#111111"/>
<rect x="33.9394" y="14.5455" width="1.2121" height="1.2121" fill="#111111"/>
<rect x="40.0000" y="14.5455" width="1.2121" height="1.2121" fill="#111111"/>
<rect x="41.2121" y="14.5455" width="1.2121" height="1.2121" fill="#111111"/>
<rect x="6.0606" y="15.7576" width="1.2121" height="1.2121" fill="#111111"/>
<rect x="7.2727" y="15.7576" width="1.2121" height="1.2121" fill="#111111"/>
<rect x="10.9091" y="15.7576" width="1.2121" height="1.2121" fill="#111111"/>
<rect x="13.3333" y="15.7576" width="1.2121" height="1.2121" fill="#111111"/>
<rect x="15.7576" y="15.7576" width="1.2121" height="1.2121" fill="#111111"/>
<rect x="18.1818" y="15.7576" width="1.2121" height="1.2121" fill="#111111"/>
<rect x="19.3939" y="15.7576" width="1.2121" height="1.2121" fill="#111111"/>
<rect x="21.8182" y="15.7576" width="1.2121" height="1.2121" fill="#111111"/>
<rect x="24.2424" y="15.7576" width="1.2121" height="1.2121" fill="#111111"/>
<rect x="25.4545" y="15.7576" width="1.2121" height="1.2121" fill="#111111"/>
<rect x="26.6667" y="15.7576" width="1.2121" height="1.2121" fill="#111111"/>
<rect x="27.8788" y="15.7576" width="1.2121" height="1.2121" fill="#111111"/>
<rect x="30.3030" y="15.7576" width="1.2121" height="1.2121" fill="#111111"/>
<rect x="31.5152" y="15.7576" width="1.2121" height="1.2121" fill="#111111"/>
<rect x="35.1515" y="15.7576" width="1.2121" height="1.2121" fill="#111111"/>
<rect x="37.5758" y="15.7576" width="1.2121" height="1.2121" fill="#111111"/>
<rect x="38.7879" y="15.7576" width="1.2121" height="1.2121" fill="#111111"/>
<rect x="41.2121" y="15.7576" width="1.2121" height="1.2121" fill="#111111"/>
<rect x="4.8485" y="16.9697" width="1.2121" height="1.2121" fill="#111111"/>
<rect x="6.0606" y="16.9697" width="1.2121" height="1.2121" fill="#111111"/>
<rect x="7.2727" y="16.9697" width="1.2121" height="1.2121" fill="#111111"/>
<rect x="8.4848" y="16.9697" width="1.2121" height="1.2121" fill="#111111"/>
<rect x="9.6970" y="16.9697" width="1.2121" height="1.2121" fill="#111111"/>
<rect x="10.9091" y="16.9697" width="1.2121" height="1.2121" fill="#111111"/>
<rect x="12.1212" y="16.9697" width="1.2121" height="1.2121" fill="#111111"/>
<rect x="14.5455" y="16.9697" width="1.2121" height="1.2121" fill="#111111"/>
<rect x="15.7576" y="16.9697" width="1.2121" height="1.2121" fill="#111111"/>
<rect x="18.1818" y="16.9697" width="1.2121" height="1.2121" fill="#111111"/>
<rect x="24.2424" y="16.9697" width="1.2121" height="1.2121" fill="#111111"/>
<rect x="25.4545" y="16.9697" width="1.2121" height="1.2121" fill="#111111"/>
<rect x="29.0909" y="16.9697" width="1.2121" height="1.2121" fill="#111111"/>
<rect x="30.3030" y="16.9697" width="1.2121" height="1.2121" fill="#111111"/>
<rect x="33.9394" y="16.9697" width="1.2121" height="1.2121" fill="#111111"/>
<rect x="35.1515" y="16.9697" width="1.2121" height="1.2121" fill="#111111"/>
<rect x="37.5758" y="16.9697" width="1.2121" height="1.2121" fill="#111111"/>
<rect x="40.0000" y="16.9697" width="1.2121" height="1.2121" fill="#111111"/>
<rect x="41.2121" y="16.9697" width="1.2121" height="1.2121" fill="#111111"/>
<rect x="42.4242" y="16.9697" width="1.2121" height="1.2121" fill="#111111"/>
<rect x="43.6364" y="16.9697" width="1.2121" height="1.2121" fill="#111111"/>
<rect x="4.8485" y="18.1818" width="1.2121" height="1.2121" fill="#111111"/>
<rect x="8.4848" y="18.1818" width="1.2121" height="1.2121" fill="#111111"/>
<rect x="9.6970" y="18.1818" width="1.2121" height="1.2121" fill="#111111"/>
<rect x="13.3333" y="18.1818" width="1.2121" height="1.2121" fill="#111111"/>
<rect x="14.5455" y="18.1818" width="1.2121" height="1.2121" fill="#111111"/>
<rect x="16.9697" y="18.1818" width="1.2121" height="1.2121" fill="#111111"/>
<rect x="26.6667" y="18.1818" width="1.2121" height="1.2121" fill="#111111"/>
<rect x="29.0909" y="18.1818" width="1.2121" height="1.2121" fill="#111111"/>
<rect x="31.5152" y="18.1818" width="1.2121" height="1.2121" fill="#111111"/>
<rect x="33.9394" y="18.1818" width="1.2121" height="1.2121" fill="#111111"/>
<rect x="36.3636" y="18.1818" width="1.2121" height="1.2121" fill="#111111"/>
<rect x="37.5758" y="18.1818" width="1.2121" height="1.2121" fill="#111111"/>
<rect x="38.7879" y="18.1818" width="1.2121" height="1.2121" fill="#111111"/>
<rect x="40.0000" y="18.1818" width="1.2121" height="1.2121" fill="#111111"/>
<rect x="41.2121" y="18.1818" width="1.2121" height="1.2121" fill="#111111"/>
<rect x="8.4848" y="19.3939" width="1.2121" height="1.2121" fill="#111111"/>
<rect x="12.1212" y="19.3939" width="1.2121" height="1.2121" fill="#111111"/>
<rect x="13.3333" y="19.3939" width="1.2121" height="1.2121" fill="#111111"/>
<rect x="14.5455" y="19.3939" width="1.2121" height="1.2121" fill="#111111"/>
<rect x="15.7576" y="19.3939" width="1.2121" height="1.2121" fill="#111111"/>
<rect x="16.9697" y="19.3939" width="1.2121" height="1.2121" fill="#111111"/>
<rect x="18.1818" y="19.3939" width="1.2121" height="1.2121" fill="#111111"/>
<rect x="30.3030" y="19.3939" width="1.2121" height="1.2121" fill="#111111"/>
<rect x="31.5152" y="19.3939" width="1.2121" height="1.2121" fill="#111111"/>
<rect x="33.9394" y="19.3939" width="1.2121" height="1.2121" fill="#111111"/>
<rect x="36.3636" y="19.3939" width="1.2121" height="1.2121" fill="#111111"/>
<rect x="38.7879" y="19.3939" width="1.2121" height="1.2121" fill="#111111"/>
<rect x="40.0000" y="19.3939" width="1.2121" height="1.2121" fill="#111111"/>
<rect x="41.2121" y="19.3939" width="1.2121" height="1.2121" fill="#111111"/>
<rect x="43.6364" y="19.3939" width="1.2121" height="1.2121" fill="#111111"/>
<rect x="4.8485" y="20.6061" width="1.2121" height="1.2121" fill="#111111"/>
<rect x="7.2727" y="20.6061" width="1.2121" height="1.2121" fill="#111111"/>
<rect x="8.4848" y="20.6061" width="1.2121" height="1.2121" fill="#111111"/>
<rect x="9.6970" y="20.6061" width="1.2121" height="1.2121" fill="#111111"/>
<rect x="10.9091" y="20.6061" width="1.2121" height="1.2121" fill="#111111"/>
<rect x="15.7576" y="20.6061" width="1.2121" height="1.2121" fill="#111111"/>
<rect x="16.9697" y="20.6061" width="1.2121" height="1.2121" fill="#111111"/>
<rect x="18.1818" y="20.6061" width="1.2121" height="1.2121" fill="#111111"/>
<rect x="30.3030" y="20.6061" width="1.2121" height="1.2121" fill="#111111"/>
<rect x="32.7273" y="20.6061" width="1.2121" height="1.2121" fill="#111111"/>
<rect x="35.1515" y="20.6061" width="1.2121" height="1.2121" fill="#111111"/>
<rect x="41.2121" y="20.6061" width="1.2121" height="1.2121" fill="#111111"/>
<rect x="42.4242" y="20.6061" width="1.2121" height="1.2121" fill="#111111"/>
<rect x="4.8485" y="21.8182" width="1.2121" height="1.2121" fill="#111111"/>
<rect x="7.2727" y="21.8182" width="1.2121" height="1.2121" fill="#111111"/>
<rect x="10.9091" y="21.8182" width="1.2121" height="1.2121" fill="#111111"/>
<rect x="12.1212" y="21.8182" width="1.2121" height="1.2121" fill="#111111"/>
<rect x="13.3333" y="21.8182" width="1.2121" height="1.2121" fill="#111111"/>
<rect x="14.5455" y="21.8182" width="1.2121" height="1.2121" fill="#111111"/>
<rect x="15.7576" y="21.8182" width="1.2121" height="1.2121" fill="#111111"/>
<rect x="16.9697" y="21.8182" width="1.2121" height="1.2121" fill="#111111"/>
<rect x="33.9394" y="21.8182" width="1.2121" height="1.2121" fill="#111111"/>
<rect x="35.1515" y="21.8182" width="1.2121" height="1.2121" fill="#111111"/>
<rect x="36.3636" y="21.8182" width="1.2121" height="1.2121" fill="#111111"/>
<rect x="41.2121" y="21.8182" width="1.2121" height="1.2121" fill="#111111"/>
<rect x="4.8485" y="23.0303" width="1.2121" height="1.2121" fill="#111111"/>
<rect x="6.0606" y="23.0303" width="1.2121" height="1.2121" fill="#111111"/>
<rect x="8.4848" y="23.0303" width="1.2121" height="1.2121" fill="#111111"/>
<rect x="13.3333" y="23.0303" width="1.2121" height="1.2121" fill="#111111"/>
<rect x="14.5455" y="23.0303" width="1.2121" height="1.2121" fill="#111111"/>
<rect x="15.7576" y="23.0303" width="1.2121" height="1.2121" fill="#111111"/>
<rect x="18.1818" y="23.0303" width="1.2121" height="1.2121" fill="#111111"/>
<rect x="32.7273" y="23.0303" width="1.2121" height="1.2121" fill="#111111"/>
<rect x="33.9394" y="23.0303" width="1.2121" height="1.2121" fill="#111111"/>
<rect x="36.3636" y="23.0303" width="1.2121" height="1.2121" fill="#111111"/>
<rect x="41.2121" y="23.0303" width="1.2121" height="1.2121" fill="#111111"/>
<rect x="42.4242" y="23.0303" width="1.2121" height="1.2121" fill="#111111"/>
<rect x="4.8485" y="24.2424" width="1.2121" height="1.2121" fill="#111111"/>
<rect x="6.0606" y="24.2424" width="1.2121" height="1.2121" fill="#111111"/>
<rect x="7.2727" y="24.2424" width="1.2121" height="1.2121" fill="#111111"/>
<rect x="10.9091" y="24.2424" width="1.2121" height="1.2121" fill="#111111"/>
<rect x="12.1212" y="24.2424" width="1.2121" height="1.2121" fill="#111111"/>
<rect x="13.3333" y="24.2424" width="1.2121" height="1.2121" fill="#111111"/>
<rect x="14.5455" y="24.2424" width="1.2121" height="1.2121" fill="#111111"/>
<rect x="15.7576" y="24.2424" width="1.2121" height="1.2121" fill="#111111"/>
<rect x="16.9697" y="24.2424" width="1.2121" height="1.2121" fill="#111111"/>
<rect x="18.1818" y="24.2424" width="1.2121" height="1.2121" fill="#111111"/>
<rect x="32.7273" y="24.2424" width="1.2121" height="1.2121" fill="#111111"/>
<rect x="36.3636" y="24.2424" width="1.2121" height="1.2121" fill="#111111"/>
<rect x="38.7879" y="24.2424" width="1.2121" height="1.2121" fill="#111111"/>
<rect x="41.2121" y="24.2424" width="1.2121" height="1.2121" fill="#111111"/>
<rect x="42.4242" y="24.2424" width="1.2121" height="1.2121" fill="#111111"/>
<rect x="6.0606" y="25.4545" width="1.2121" height="1.2121" fill="#111111"/>
<rect x="7.2727" y="25.4545" width="1.2121" height="1.2121" fill="#111111"/>
<rect x="9.6970" y="25.4545" width="1.2121" height="1.2121" fill="#111111"/>
<rect x="10.9091" y="25.4545" width="1.2121" height="1.2121" fill="#111111"/>
<rect x="15.7576" y="25.4545" width="1.2121" height="1.2121" fill="#111111"/>
<rect x="31.5152" y="25.4545" width="1.2121" height="1.2121" fill="#111111"/>
<rect x="33.9394" y="25.4545" width="1.2121" height="1.2121" fill="#111111"/>
<rect x="40.0000" y="25.4545" width="1.2121" height="1.2121" fill="#111111"/>
<rect x="4.8485" y="26.6667" width="1.2121" height="1.2121" fill="#111111"/>
<rect x="6.0606" y="26.6667" width="1.2121" height="1.2121" fill="#111111"/>
<rect x="7.2727" y="26.6667" width="1.2121" height="1.2121" fill="#111111"/>
<rect x="9.6970" y="26.6667" width="1.2121" height="1.2121" fill="#111111"/>
<rect x="12.1212" y="26.6667" width="1.2121" height="1.2121" fill="#111111"/>
<rect x="13.3333" y="26.6667" width="1.2121" height="1.2121" fill="#111111"/>
<rect x="14.5455" y="26.6667" width="1.2121" height="1.2121" fill="#111111"/>
<rect x="15.7576" y="26.6667" width="1.2121" height="1.2121" fill="#111111"/>
<rect x="16.9697" y="26.6667" width="1.2121" height="1.2121" fill="#111111"/>
<rect x="18.1818" y="26.6667" width="1.2121" height="1.2121" fill="#111111"/>
<rect x="30.3030" y="26.6667" width="1.2121" height="1.2121" fill="#111111"/>
<rect x="31.5152" y="26.6667" width="1.2121" height="1.2121" fill="#111111"/>
<rect x="32.7273" y="26.6667" width="1.2121" height="1.2121" fill="#111111"/>
<rect x="35.1515" y="26.6667" width="1.2121" height="1.2121" fill="#111111"/>
<rect x="36.3636" y="26.6667" width="1.2121" height="1.2121" fill="#111111"/>
<rect x="37.5758" y="26.6667" width="1.2121" height="1.2121" fill="#111111"/>
<rect x="38.7879" y="26.6667" width="1.2121" height="1.2121" fill="#111111"/>
<rect x="40.0000" y="26.6667" width="1.2121" height="1.2121" fill="#111111"/>
<rect x="41.2121" y="26.6667" width="1.2121" height="1.2121" fill="#111111"/>
<rect x="42.4242" y="26.6667" width="1.2121" height="1.2121" fill="#111111"/>
<rect x="43.6364" y="26.6667" width="1.2121" height="1.2121" fill="#111111"/>
<rect x="4.8485" y="27.8788" width="1.2121" height="1.2121" fill="#111111"/>
<rect x="6.0606" y="27.8788" width="1.2121" height="1.2121" fill="#111111"/>
<rect x="7.2727" y="27.8788" width="1.2121" height="1.2121" fill="#111111"/>
<rect x="14.5455" y="27.8788" width="1.2121" height="1.2121" fill="#111111"/>
<rect x="15.7576" y="27.8788" width="1.2121" height="1.2121" fill="#111111"/>
<rect x="18.1818" y="27.8788" width="1.2121" height="1.2121" fill="#111111"/>
<rect x="30.3030" y="27.8788" width="1.2121" height="1.2121" fill="#111111"/>
<rect x="32.7273" y="27.8788" width="1.2121" height="1.2121" fill="#111111"/>
<rect x="33.9394" y="27.8788" width="1.2121" height="1.2121" fill="#111111"/>
<rect x="36.3636" y="27.8788" width="1.2121" height="1.2121" fill="#111111"/>
<rect x="40.0000" y="27.8788" width="1.2121" height="1.2121" fill="#111111"/>
<rect x="41.2121" y="27.8788" width="1.2121" height="1.2121" fill="#111111"/>
<rect x="43.6364" y="27.8788" width="1.2121" height="1.2121" fill="#111111"/>
<rect x="4.8485" y="29.0909" width="1.2121" height="1.2121" fill="#111111"/>
<rect x="9.6970" y="29.0909" width="1.2121" height="1.2121" fill="#111111"/>
<rect x="12.1212" y="29.0909" width="1.2121" height="1.2121" fill="#111111"/>
<rect x="14.5455" y="29.0909" width="1.2121" height="1.2121" fill="#111111"/>
<rect x="15.7576" y="29.0909" width="1.2121" height="1.2121" fill="#111111"/>
<rect x="30.3030" y="29.0909" width="1.2121" height="1.2121" fill="#111111"/>
<rect x="33.9394" y="29.0909" width="1.2121" height="1.2121" fill="#111111"/>
<rect x="35.1515" y="29.0909" width="1.2121" height="1.2121" fill="#111111"/>
<rect x="36.3636" y="29.0909" width="1.2121" height="1.2121" fill="#111111"/>
<rect x="37.5758" y="29.0909" width="1.2121" height="1.2121" fill="#111111"/>
<rect x="40.0000" y="29.0909" width="1.2121" height="1.2121" fill="#111111"/>
<rect x="42.4242" y="29.0909" width="1.2121" height="1.2121" fill="#111111"/>
<rect x="43.6364" y="29.0909" width="1.2121" height="1.2121" fill="#111111"/>
<rect x="4.8485" y="30.3030" width="1.2121" height="1.2121" fill="#111111"/>
<rect x="6.0606" y="30.3030" width="1.2121" height="1.2121" fill="#111111"/>
<rect x="7.2727" y="30.3030" width="1.2121" height="1.2121" fill="#111111"/>
<rect x="8.4848" y="30.3030" width="1.2121" height="1.2121" fill="#111111"/>
<rect x="16.9697" y="30.3030" width="1.2121" height="1.2121" fill="#111111"/>
<rect x="18.1818" y="30.3030" width="1.2121" height="1.2121" fill="#111111"/>
<rect x="19.3939" y="30.3030" width="1.2121" height="1.2121" fill="#111111"/>
<rect x="20.6061" y="30.3030" width="1.2121" height="1.2121" fill="#111111"/>
<rect x="21.8182" y="30.3030" width="1.2121" height="1.2121" fill="#111111"/>
<rect x="23.0303" y="30.3030" width="1.2121" height="1.2121" fill="#111111"/>
<rect x="29.0909" y="30.3030" width="1.2121" height="1.2121" fill="#111111"/>
<rect x="30.3030" y="30.3030" width="1.2121" height="1.2121" fill="#111111"/>
<rect x="31.5152" y="30.3030" width="1.2121" height="1.2121" fill="#111111"/>
<rect x="33.9394" y="30.3030" width="1.2121" height="1.2121" fill="#111111"/>
<rect x="38.7879" y="30.3030" width="1.2121" height="1.2121" fill="#111111"/>
<rect x="40.0000" y="30.3030" width="1.2121" height="1.2121" fill="#111111"/>
<rect x="42.4242" y="30.3030" width="1.2121" height="1.2121" fill="#111111"/>
<rect x="43.6364" y="30.3030" width="1.2121" height="1.2121" fill="#111111"/>
<rect x="4.8485" y="31.5152" width="1.2121" height="1.2121" fill="#111111"/>
<rect x="7.2727" y="31.5152" width="1.2121" height="1.2121" fill="#111111"/>
<rect x="8.4848" y="31.5152" width="1.2121" height="1.2121" fill="#111111"/>
<rect x="9.6970" y="31.5152" width="1.2121" height="1.2121" fill="#111111"/>
<rect x="10.9091" y="31.5152" width="1.2121" height="1.2121" fill="#111111"/>
<rect x="12.1212" y="31.5152" width="1.2121" height="1.2121" fill="#111111"/>
<rect x="13.3333" y="31.5152" width="1.2121" height="1.2121" fill="#111111"/>
<rect x="14.5455" y="31.5152" width="1.2121" height="1.2121" fill="#111111"/>
<rect x="16.9697" y="31.5152" width="1.2121" height="1.2121" fill="#111111"/>
<rect x="18.1818" y="31.5152" width="1.2121" height="1.2121" fill="#111111"/>
<rect x="19.3939" y="31.5152" width="1.2121" height="1.2121" fill="#111111"/>
<rect x="24.2424" y="31.5152" width="1.2121" height="1.2121" fill="#111111"/>
<rect x="25.4545" y="31.5152" width="1.2121" height="1.2121" fill="#111111"/>
<rect x="27.8788" y="31.5152" width="1.2121" height="1.2121" fill="#111111"/>
<rect x="29.0909" y="31.5152" width="1.2121" height="1.2121" fill="#111111"/>
<rect x="31.5152" y="31.5152" width="1.2121" height="1.2121" fill="#111111"/>
<rect x="36.3636" y="31.5152" width="1.2121" height="1.2121" fill="#111111"/>
<rect x="4.8485" y="32.7273" width="1.2121" height="1.2121" fill="#111111"/>
<rect x="7.2727" y="32.7273" width="1.2121" height="1.2121" fill="#111111"/>
<rect x="8.4848" y="32.7273" width="1.2121" height="1.2121" fill="#111111"/>
<rect x="15.7576" y="32.7273" width="1.2121" height="1.2121" fill="#111111"/>
<rect x="23.0303" y="32.7273" width="1.2121" height="1.2121" fill="#111111"/>
<rect x="24.2424" y="32.7273" width="1.2121" height="1.2121" fill="#111111"/>
<rect x="25.4545" y="32.7273" width="1.2121" height="1.2121" fill="#111111"/>
<rect x="26.6667" y="32.7273" width="1.2121" height="1.2121" fill="#111111"/>
<rect x="30.3030" y="32.7273" width="1.2121" height="1.2121" fill="#111111"/>
<rect x="32.7273" y="32.7273" width="1.2121" height="1.2121" fill="#111111"/>
<rect x="33.9394" y="32.7273" width="1.2121" height="1.2121" fill="#111111"/>
<rect x="41.2121" y="32.7273" width="1.2121" height="1.2121" fill="#111111"/>
<rect x="42.4242" y="32.7273" width="1.2121" height="1.2121" fill="#111111"/>
<rect x="43.6364" y="32.7273" width="1.2121" height="1.2121" fill="#111111"/>
<rect x="4.8485" y="33.9394" width="1.2121" height="1.2121" fill="#111111"/>
<rect x="6.0606" y="33.9394" width="1.2121" height="1.2121" fill="#111111"/>
<rect x="12.1212" y="33.9394" width="1.2121" height="1.2121" fill="#111111"/>
<rect x="14.5455" y="33.9394" width="1.2121" height="1.2121" fill="#111111"/>
<rect x="18.1818" y="33.9394" width="1.2121" height="1.2121" fill="#111111"/>
<rect x="19.3939" y="33.9394" width="1.2121" height="1.2121" fill="#111111"/>
<rect x="21.8182" y="33.9394" width="1.2121" height="1.2121" fill="#111111"/>
<rect x="23.0303" y="33.9394" width="1.2121" height="1.2121" fill="#111111"/>
<rect x="24.2424" y="33.9394" width="1.2121" height="1.2121" fill="#111111"/>
<rect x="25.4545" y="33.9394" width="1.2121" height="1.2121" fill="#111111"/>
<rect x="27.8788" y="33.9394" width="1.2121" height="1.2121" fill="#111111"/>
<rect x="30.3030" y="33.9394" width="1.2121" height="1.2121" fill="#111111"/>
<rect x="32.7273" y="33.9394" width="1.2121" height="1.2121" fill="#111111"/>
<rect x="33.9394" y="33.9394" width="1.2121" height="1.2121" fill="#111111"/>
<rect x="35.1515" y="33.9394" width="1.2121" height="1.2121" fill="#111111"/>
<rect x="36.3636" y="33.9394" width="1.2121" height="1.2121" fill="#111111"/>
<rect x="37.5758" y="33.9394" width="1.2121" height="1.2121" fill="#111111"/>
<rect x="38.7879" y="33.9394" width="1.2121" height="1.2121" fill="#111111"/>
<rect x="40.0000" y="33.9394" width="1.2121" height="1.2121" fill="#111111"/>
<rect x="14.5455" y="35.1515" width="1.2121" height="1.2121" fill="#111111"/>
<rect x="20.6061" y="35.1515" width="1.2121" height="1.2121" fill="#111111"/>
<rect x="25.4545" y="35.1515" width="1.2121" height="1.2121" fill="#111111"/>
<rect x="26.6667" y="35.1515" width="1.2121" height="1.2121" fill="#111111"/>
<rect x="29.0909" y="35.1515" width="1.2121" height="1.2121" fill="#111111"/>
<rect x="31.5152" y="35.1515" width="1.2121" height="1.2121" fill="#111111"/>
<rect x="32.7273" y="35.1515" width="1.2121" height="1.2121" fill="#111111"/>
<rect x="33.9394" y="35.1515" width="1.2121" height="1.2121" fill="#111111"/>
<rect x="38.7879" y="35.1515" width="1.2121" height="1.2121" fill="#111111"/>
<rect x="40.0000" y="35.1515" width="1.2121" height="1.2121" fill="#111111"/>
<rect x="41.2121" y="35.1515" width="1.2121" height="1.2121" fill="#111111"/>
<rect x="42.4242" y="35.1515" width="1.2121" height="1.2121" fill="#111111"/>
<rect x="4.8485" y="36.3636" width="1.2121" height="1.2121" fill="#111111"/>
<rect x="6.0606" y="36.3636" width="1.2121" height="1.2121" fill="#111111"/>
<rect x="7.2727" y="36.3636" width="1.2121" height="1.2121" fill="#111111"/>
<rect x="8.4848" y="36.3636" width="1.2121" height="1.2121" fill="#111111"/>
<rect x="9.6970" y="36.3636" width="1.2121" height="1.2121" fill="#111111"/>
<rect x="10.9091" y="36.3636" width="1.2121" height="1.2121" fill="#111111"/>
<rect x="12.1212" y="36.3636" width="1.2121" height="1.2121" fill="#111111"/>
<rect x="14.5455" y="36.3636" width="1.2121" height="1.2121" fill="#111111"/>
<rect x="15.7576" y="36.3636" width="1.2121" height="1.2121" fill="#111111"/>
<rect x="18.1818" y="36.3636" width="1.2121" height="1.2121" fill="#111111"/>
<rect x="23.0303" y="36.3636" width="1.2121" height="1.2121" fill="#111111"/>
<rect x="26.6667" y="36.3636" width="1.2121" height="1.2121" fill="#111111"/>
<rect x="27.8788" y="36.3636" width="1.2121" height="1.2121" fill="#111111"/>
<rect x="29.0909" y="36.3636" width="1.2121" height="1.2121" fill="#111111"/>
<rect x="31.5152" y="36.3636" width="1.2121" height="1.2121" fill="#111111"/>
<rect x="32.7273" y="36.3636" width="1.2121" height="1.2121" fill="#111111"/>
<rect x="33.9394" y="36.3636" width="1.2121" height="1.2121" fill="#111111"/>
<rect x="36.3636" y="36.3636" width="1.2121" height="1.2121" fill="#111111"/>
<rect x="38.7879" y="36.3636" width="1.2121" height="1.2121" fill="#111111"/>
<rect x="40.0000" y="36.3636" width="1.2121" height="1.2121" fill="#111111"/>
<rect x="41.2121" y="36.3636" width="1.2121" height="1.2121" fill="#111111"/>
<rect x="4.8485" y="37.5758" width="1.2121" height="1.2121" fill="#111111"/>
<rect x="12.1212" y="37.5758" width="1.2121" height="1.2121" fill="#111111"/>
<rect x="15.7576" y="37.5758" width="1.2121" height="1.2121" fill="#111111"/>
<rect x="16.9697" y="37.5758" width="1.2121" height="1.2121" fill="#111111"/>
<rect x="19.3939" y="37.5758" width="1.2121" height="1.2121" fill="#111111"/>
<rect x="21.8182" y="37.5758" width="1.2121" height="1.2121" fill="#111111"/>
<rect x="25.4545" y="37.5758" width="1.2121" height="1.2121" fill="#111111"/>
<rect x="31.5152" y="37.5758" width="1.2121" height="1.2121" fill="#111111"/>
<rect x="32.7273" y="37.5758" width="1.2121" height="1.2121" fill="#111111"/>
<rect x="33.9394" y="37.5758" width="1.2121" height="1.2121" fill="#111111"/>
<rect x="38.7879" y="37.5758" width="1.2121" height="1.2121" fill="#111111"/>
<rect x="40.0000" y="37.5758" width="1.2121" height="1.2121" fill="#111111"/>
<rect x="41.2121" y="37.5758" width="1.2121" height="1.2121" fill="#111111"/>
<rect x="42.4242" y="37.5758" width="1.2121" height="1.2121" fill="#111111"/>
<rect x="4.8485" y="38.7879" width="1.2121" height="1.2121" fill="#111111"/>
<rect x="7.2727" y="38.7879" width="1.2121" height="1.2121" fill="#111111"/>
<rect x="8.4848" y="38.7879" width="1.2121" height="1.2121" fill="#111111"/>
<rect x="9.6970" y="38.7879" width="1.2121" height="1.2121" fill="#111111"/>
<rect x="12.1212" y="38.7879" width="1.2121" height="1.2121" fill="#111111"/>
<rect x="14.5455" y="38.7879" width="1.2121" height="1.2121" fill="#111111"/>
<rect x="15.7576" y="38.7879" width="1.2121" height="1.2121" fill="#111111"/>
<rect x="18.1818" y="38.7879" width="1.2121" height="1.2121" fill="#111111"/>
<rect x="27.8788" y="38.7879" width="1.2121" height="1.2121" fill="#111111"/>
<rect x="30.3030" y="38.7879" width="1.2121" height="1.2121" fill="#111111"/>
<rect x="33.9394" y="38.7879" width="1.2121" height="1.2121" fill="#111111"/>
<rect x="35.1515" y="38.7879" width="1.2121" height="1.2121" fill="#111111"/>
<rect x="36.3636" y="38.7879" width="1.2121" height="1.2121" fill="#111111"/>
<rect x="37.5758" y="38.7879" width="1.2121" height="1.2121" fill="#111111"/>
<rect x="38.7879" y="38.7879" width="1.2121" height="1.2121" fill="#111111"/>
<rect x="40.0000" y="38.7879" width="1.2121" height="1.2121" fill="#111111"/>
<rect x="41.2121" y="38.7879" width="1.2121" height="1.2121" fill="#111111"/>
<rect x="42.4242" y="38.7879" width="1.2121" height="1.2121" fill="#111111"/>
<rect x="4.8485" y="40.0000" width="1.2121" height="1.2121" fill="#111111"/>
<rect x="7.2727" y="40.0000" width="1.2121" height="1.2121" fill="#111111"/>
<rect x="8.4848" y="40.0000" width="1.2121" height="1.2121" fill="#111111"/>
<rect x="9.6970" y="40.0000" width="1.2121" height="1.2121" fill="#111111"/>
<rect x="12.1212" y="40.0000" width="1.2121" height="1.2121" fill="#111111"/>
<rect x="14.5455" y="40.0000" width="1.2121" height="1.2121" fill="#111111"/>
<rect x="15.7576" y="40.0000" width="1.2121" height="1.2121" fill="#111111"/>
<rect x="16.9697" y="40.0000" width="1.2121" height="1.2121" fill="#111111"/>
<rect x="19.3939" y="40.0000" width="1.2121" height="1.2121" fill="#111111"/>
<rect x="20.6061" y="40.0000" width="1.2121" height="1.2121" fill="#111111"/>
<rect x="23.0303" y="40.0000" width="1.2121" height="1.2121" fill="#111111"/>
<rect x="25.4545" y="40.0000" width="1.2121" height="1.2121" fill="#111111"/>
<rect x="26.6667" y="40.0000" width="1.2121" height="1.2121" fill="#111111"/>
<rect x="27.8788" y="40.0000" width="1.2121" height="1.2121" fill="#111111"/>
<rect x="29.0909" y="40.0000" width="1.2121" height="1.2121" fill="#111111"/>
<rect x="31.5152" y="40.0000" width="1.2121" height="1.2121" fill="#111111"/>
<rect x="32.7273" y="40.0000" width="1.2121" height="1.2121" fill="#111111"/>
<rect x="33.9394" y="40.0000" width="1.2121" height="1.2121" fill="#111111"/>
<rect x="35.1515" y="40.0000" width="1.2121" height="1.2121" fill="#111111"/>
<rect x="37.5758" y="40.0000" width="1.2121" height="1.2121" fill="#111111"/>
<rect x="40.0000" y="40.0000" width="1.2121" height="1.2121" fill="#111111"/>
<rect x="41.2121" y="40.0000" width="1.2121" height="1.2121" fill="#111111"/>
<rect x="4.8485" y="41.2121" width="1.2121" height="1.2121" fill="#111111"/>
<rect x="7.2727" y="41.2121" width="1.2121" height="1.2121" fill="#111111"/>
<rect x="8.4848" y="41.2121" width="1.2121" height="1.2121" fill="#111111"/>
<rect x="9.6970" y="41.2121" width="1.2121" height="1.2121" fill="#111111"/>
<rect x="12.1212" y="41.2121" width="1.2121" height="1.2121" fill="#111111"/>
<rect x="15.7576" y="41.2121" width="1.2121" height="1.2121" fill="#111111"/>
<rect x="20.6061" y="41.2121" width="1.2121" height="1.2121" fill="#111111"/>
<rect x="21.8182" y="41.2121" width="1.2121" height="1.2121" fill="#111111"/>
<rect x="24.2424" y="41.2121" width="1.2121" height="1.2121" fill="#111111"/>
<rect x="26.6667" y="41.2121" width="1.2121" height="1.2121" fill="#111111"/>
<rect x="27.8788" y="41.2121" width="1.2121" height="1.2121" fill="#111111"/>
<rect x="29.0909" y="41.2121" width="1.2121" height="1.2121" fill="#111111"/>
<rect x="30.3030" y="41.2121" width="1.2121" height="1.2121" fill="#111111"/>
<rect x="33.9394" y="41.2121" width="1.2121" height="1.2121" fill="#111111"/>
<rect x="38.7879" y="41.2121" width="1.2121" height="1.2121" fill="#111111"/>
<rect x="41.2121" y="41.2121" width="1.2121" height="1.2121" fill="#111111"/>
<rect x="42.4242" y="41.2121" width="1.2121" height="1.2121" fill="#111111"/>
<rect x="43.6364" y="41.2121" width="1.2121" height="1.2121" fill="#111111"/>
<rect x="4.8485" y="42.4242" width="1.2121" height="1.2121" fill="#111111"/>
<rect x="12.1212" y="42.4242" width="1.2121" height="1.2121" fill="#111111"/>
<rect x="15.7576" y="42.4242" width="1.2121" height="1.2121" fill="#111111"/>
<rect x="16.9697" y="42.4242" width="1.2121" height="1.2121" fill="#111111"/>
<rect x="19.3939" y="42.4242" width="1.2121" height="1.2121" fill="#111111"/>
<rect x="20.6061" y="42.4242" width="1.2121" height="1.2121" fill="#111111"/>
<rect x="21.8182" y="42.4242" width="1.2121" height="1.2121" fill="#111111"/>
<rect x="25.4545" y="42.4242" width="1.2121" height="1.2121" fill="#111111"/>
<rect x="29.0909" y="42.4242" width="1.2121" height="1.2121" fill="#111111"/>
<rect x="30.3030" y="42.4242" width="1.2121" height="1.2121" fill="#111111"/>
<rect x="31.5152" y="42.4242" width="1.2121" height="1.2121" fill="#111111"/>
<rect x="32.7273" y="42.4242" width="1.2121" height="1.2121" fill="#111111"/>
<rect x="41.2121" y="42.4242" width="1.2121" height="1.2121" fill="#111111"/>
<rect x="42.4242" y="42.4242" width="1.2121" height="1.2121" fill="#111111"/>
<rect x="43.6364" y="42.4242" width="1.2121" height="1.2121" fill="#111111"/>
<rect x="4.8485" y="43.6364" width="1.2121" height="1.2121" fill="#111111"/>
<rect x="6.0606" y="43.6364" width="1.2121" height="1.2121" fill="#111111"/>
<rect x="7.2727" y="43.6364" width="1.2121" height="1.2121" fill="#111111"/>
<rect x="8.4848" y="43.6364" width="1.2121" height="1.2121" fill="#111111"/>
<rect x="9.6970" y="43.6364" width="1.2121" height="1.2121" fill="#111111"/>
<rect x="10.9091" y="43.6364" width="1.2121" height="1.2121" fill="#111111"/>
<rect x="12.1212" y="43.6364" width="1.2121" height="1.2121" fill="#111111"/>
<rect x="15.7576" y="43.6364" width="1.2121" height="1.2121" fill="#111111"/>
<rect x="16.9697" y="43.6364" width="1.2121" height="1.2121" fill="#111111"/>
<rect x="18.1818" y="43.6364" width="1.2121" height="1.2121" fill="#111111"/>
<rect x="19.3939" y="43.6364" width="1.2121" height="1.2121" fill="#111111"/>
<rect x="20.6061" y="43.6364" width="1.2121" height="1.2121" fill="#111111"/>
<rect x="21.8182" y="43.6364" width="1.2121" height="1.2121" fill="#111111"/>
<rect x="24.2424" y="43.6364" width="1.2121" height="1.2121" fill="#111111"/>
<rect x="26.6667" y="43.6364" width="1.2121" height="1.2121" fill="#111111"/>
<rect x="27.8788" y="43.6364" width="1.2121" height="1.2121" fill="#111111"/>
<rect x="32.7273" y="43.6364" width="1.2121" height="1.2121" fill="#111111"/>
<rect x="33.9394" y="43.6364" width="1.2121" height="1.2121" fill="#111111"/>
<rect x="36.3636" y="43.6364" width="1.2121" height="1.2121" fill="#111111"/>
<rect x="38.7879" y="43.6364" width="1.2121" height="1.2121" fill="#111111"/>
<rect x="41.2121" y="43.6364" width="1.2121" height="1.2121" fill="#111111"/>
</g>
<rect x="20.267" y="20.267" width="9.164" height="9.164" fill="#E84E1B"/>
<ellipse cx="24.848" cy="24.848" rx="3.757" ry="1.375" fill="none" stroke="#111111" stroke-width="0.504" transform="rotate(90 24.848 24.848)"/>
<ellipse cx="24.848" cy="24.848" rx="3.757" ry="1.375" fill="none" stroke="#111111" stroke-width="0.504" transform="rotate(150 24.848 24.848)"/>
<ellipse cx="24.848" cy="24.848" rx="3.757" ry="1.375" fill="none" stroke="#111111" stroke-width="0.504" transform="rotate(30 24.848 24.848)"/>
<circle cx="24.848" cy="24.848" r="0.779" fill="#111111"/>
<rect x="4.848" y="46.182" width="40.000" height="0.303" fill="#111111"/>
<text x="4.848" y="48.364" font-weight="700" font-family="Helvetica, Arial, sans-serif" font-size="2.061" letter-spacing="0.371" fill="#111111">DOI</text>
<text x="44.848" y="48.364" text-anchor="end" font-family="Helvetica, Arial, sans-serif" font-size="2.061" letter-spacing="0.206" fill="#E84E1B">10.1109/TNS.2025.3628391</text>
</svg>